<svg version="1.2" xmlns="http://www.w3.org/2000/svg" viewBox="0 0 448 448" width="448" height="448"><style>.a{fill:#919191}</style><path class="a" d="m0 64c0-35.3 28.7-64 64-64h320c35.3 0 64 28.7 64 64v320c0 35.3-28.7 64-64 64h-320c-35.3 0-64-28.7-64-64zm64-16c-8.8 0-16 7.2-16 16v320c0 8.8 7.2 16 16 16h320c8.8 0 16-7.2 16-16v-320c0-8.8-7.2-16-16-16zm64 48c17.7 0 32 14.3 32 32 0 17.7-14.3 32-32 32-17.7 0-32-14.3-32-32 0-17.7 14.3-32 32-32zm136 72c8.5 0 16.4 4.5 20.7 11.8l80 136c4.4 7.4 4.4 16.6 0.1 24.1-4.3 7.5-12.2 12.1-20.8 12.1h-240c-8.9 0-17.2-5-21.3-12.9-4.1-7.9-3.5-17.5 1.6-24.8l56-80c4.5-6.4 11.8-10.2 19.7-10.2 7.9 0 15.2 3.8 19.7 10.2l17.2 24.6 46.5-79c4.3-7.3 12.2-11.8 20.7-11.8z"/></svg>